<svg xmlns="http://www.w3.org/2000/svg" version="1.0" viewBox="0 0 816 816">
  <path d="M347.6 100.2c.5.7 5.5 8.7 11.2 17.6 5.7 9 10.1 16.6 9.9 16.8-.3.3-7.9-.4-16.8-1.5-9-1.1-22.5-2.6-29.9-3.3-18.8-1.6-68.4-1.6-84.5.1-11.7 1.2-14 1.1-21.9-.4-4.9-.9-12.3-2.7-16.5-4-4.1-1.3-7.6-2.3-7.8-2.1-.7.6 7.3 24.1 13.4 39.6 15.8 39.9 32.1 67.5 52.1 88.2 5.1 5.3 11.1 10.8 13.3 12.4l3.9 2.7-10.2 3.9C233 281.8 201 307.1 178 337.8c-8.8 11.8-19.5 29-18.6 29.9.4.4 27.6-8.4 47.5-15.5.8-.3-.7 3.3-3.3 7.9-6.3 11.2-16.7 32.6-20.3 41.7l-2.9 7.4-8.1-7.9c-4.4-4.3-9.4-9.6-11.1-11.7l-3.1-3.9-2 6.9c-2.2 7.2-4.1 21.3-4.1 30.1v5.3H.5L11 438.3c5.8 5.6 15.8 15.3 22.3 21.5l11.8 11.3-11.6 66.5c-6.4 36.6-11.4 66.8-11.2 67.1.3.2 9.6-2.3 20.8-5.6l20.2-6.1h192.1l6.5 3.4c38.1 19.6 84.7 31.5 140 35.7 27.2 2 98.3-.1 101.4-3.1.5-.4-.6-1.1-2.5-1.5-5-1.1-19.5-7.6-30.3-13.5-7.8-4.4-9.3-5.5-7.9-6.3 2.1-1.2 20.8-.1 32.1 1.9 43 7.5 81.2 38.1 103.8 83.2l5.2 10.4 4.8-11.3c11.3-26.8 18.9-49.5 21.5-64.5.8-4.5 1.1-11.9.8-19.8l-.5-12.6h126.5l11.2 5.1c6.2 2.7 11.5 4.8 11.8 4.4.5-.5 34.1-172.6 34.2-175.2 0-1-29.3-1.3-141.4-1.5l-141.4-.3 4.2-4.5 4.1-4.6 16 1.3c43.8 3.4 101.1 3.4 128-.2 15.5-2 30.8-5.7 38.7-9.3 13.4-6.1 33.6-24.2 47.2-42.2 7.3-9.7 17.6-26.9 17.6-29.2-.1-.7-30.3-18.7-67.3-39.9l-67.2-38.5-14-20.4-14-20.4-10-5.3c-18.6-10-73.9-37.5-94.5-47-34.4-16-66.4-29.3-95.5-39.8-7.1-2.5-20.2-7.9-29-12-17.2-7.8-24-10.3-38-14.1-10.4-2.8-10.9-2.8-9.9-1.2zm54.7 32.4c34.6 10.1 102.2 40.5 180.2 81l30 15.6 15 20.7 14.9 20.7 46.7 28.9 46.6 28.8.7 13.6c.4 7.5.9 18.2 1.3 23.9l.6 10.2-3.7 3.5c-2 1.9-6.5 4.8-10 6.5-5.6 2.6-7.5 3-15 3-16.5 0-36.4-3.1-51.6-8-11.2-3.6-23.8-10.3-45.7-24.4-47.5-30.3-61.4-36.6-80.3-36.6-11.2 0-25.5 3.1-32.6 6.9l-5.6 3 .4-5.7.5-5.6-4.4 4.9c-8.9 10-10.7 17.5-5.4 22.4 1.6 1.5 4.7 3.3 6.9 3.9 5.7 1.7 17 1.5 23.3-.5l5.4-1.7-8.9-.8c-9.1-.8-14-2.7-13-5.1.8-2.2 7.6-5.5 14.5-7.2 5.9-1.4 6.5-1.3 7.4.1 6.9 11.3 16.4 19.9 26.2 24 7.9 3.2 8.9 3.1 5.9-.9-3.2-4.2-5.2-9.8-6.1-17.1-.6-4.7-.5-5.6.9-5.6 4.3 0 16.3 6 32.3 16.3 38.9 24.8 67.1 39.3 87.3 44.8 2.5.7 4.9 1.6 5.3 1.9.5.4-4.2 1.7-10.5 2.9-28.9 5.4-64.3 5.4-86.3.1-7.6-1.8-9.4-1.9-17.7-.9-9.3 1.1-30.8 6-42.8 9.8-3.5 1.1-6.6 1.9-6.7 1.7-.4-.4 14.6-10.4 20.5-13.6 6.2-3.5 3.5-4.4-9.9-3.6-24.2 1.4-52.4 8.6-89.2 22.7-7.1 2.7-15.8 5.3-19.5 5.9-3.7.6-11.2 1.9-16.7 3-9.4 1.9-13.5 2-67.3 1.8l-57.2-.3 5.3-4.1c2.9-2.3 8.2-5.8 11.7-7.9 3.6-2 5.8-3.5 5-3.2-.9.3-5 1.4-9.1 2.6-4.1 1.1-11.5 3.4-16.4 5.1-4.9 1.6-9 2.9-9.1 2.7-.4-.4 18.6-15.8 33.1-26.7 17.3-13 31.4-22.6 47-31.9 6.6-4 12.1-7.4 12.4-7.7 2.7-2.6-35.8 16.1-49.8 24.3-21.5 12.6-40 26.4-53.6 40.2l-6.9 7.1h-27.9l-8.2-4.6c-4.5-2.5-9.4-5.6-10.9-6.8l-2.7-2.1 4.5-10.7c7.6-18.3 20.6-39.8 37.4-62.1 7.7-10.3 7.9-10.7 5.4-10.7-3.7 0-28.8 8.6-46.1 15.9l-14.4 6 6.4-6.6c8.9-9 28.2-24.4 41.9-33.3 13.9-9 37.2-20.9 47.8-24.4 25.8-8.5 73.7-17.8 98.6-19.2l11.7-.7-11.3-4.2c-22.1-8.2-37.8-16.8-47.9-26.2-4.6-4.3-9.6-11-8.8-11.7.2-.2 6.7-.9 14.4-1.6 7.7-.6 14.3-1.4 14.7-1.6.4-.3-5-5.4-12-11.3-7-6-14.5-12.5-16.7-14.5l-4-3.7 3 .5c1.7.3 8.4 1.7 15 3.2 9 1.9 16.1 2.7 28.3 3.1 16.8.6 19.5 0 12.5-2.9-2.1-.9-9.2-3.8-15.9-6.6-31.7-13.1-68.8-23.7-93.1-26.6l-5.3-.7 3.4 7.8c9.5 22.2 24.3 48.5 36 64.1 7.6 10.1 20.8 23.4 25.1 25.4 1.4.6 2.5 1.5 2.5 1.9 0 1.8-7-.6-17.1-5.8-30-15.4-57.3-44.6-76.3-81.6-5.8-11.3-14.1-31.6-13.2-32.4.2-.3 4.9-1.2 10.3-2.1 14.3-2.4 68.1-2.3 88.8.1 30.2 3.6 63.5 9.4 86.7 15.3 5.3 1.3 10.3 2.4 11 2.4.7 0-5.4-6.6-13.5-14.8-8.1-8.1-14.7-15-14.7-15.3 0-.9 8.3.8 18.3 3.7zM541.1 341c.3 4.1 1.1 8.5 1.8 9.8 1.2 2.3 1.2 2.3-1.6.9-3.6-1.9-12.5-11.3-14.7-15.6l-1.7-3.2 7.8.3 7.8.3.6 7.5zm-370.8 68.8c1.4 2.1 5.8 7.1 9.8 11l7.3 7.2H164v-3.8c0-6.4 2.2-18.2 3.4-18.2.2 0 1.5 1.7 2.9 3.8zm-29.5 36.7c.1.1-3 5.7-6.9 12.4l-7.1 12.1H97.3l-2.1 12.3c-1.2 6.8-2.2 13.1-2.2 14 0 1.4 1.7 1.7 13.9 1.9l13.9.3-7 11.2-7 11.3h-9.4c-5.2 0-9.4.1-9.4.2-.1.2-2.2 12.2-4.8 26.8l-4.7 26.5-13.3.3c-11.5.2-13.2.1-13.2-1.3 0-.9 4.5-27.5 10-59.2l10.1-57.7-6.3-6.3-6.3-6.4 40.5.7c22.3.4 40.6.8 40.8.9zm643.2-.3c0 .7-1.3 6.2-2.8 12.3l-2.8 11-16.2.3c-8.9.1-16.2.5-16.2.8 0 .3-2.9 17.3-6.5 37.8-3.6 20.5-6.5 38.2-6.5 39.5 0 1.6.5 2.1 1.7 1.9 1.4-.3 2.4-4 5.4-21.1 2.1-12.3 4.2-21.4 5-22.1 1.8-1.7 27.1-16.7 27.5-16.3.3.3-12.7 76.1-14.2 82.9l-.6 2.8h-44.6l-2.8-3.3c-1.5-1.7-3.6-5.1-4.6-7.4l-1.9-4.2 8.6-49.8c4.7-27.4 9.3-51.4 10.2-53.5.8-2 3.3-5.3 5.5-7.5l3.9-3.8 19.7-.5c10.8-.3 22.5-.7 26-.8 4.4-.1 6.2.2 6.2 1zm-575.3 2 2.1 2.3-9.3 53.2c-10.6 60.7-10.6 60.8-20.5 67.2-3 2-5.6 3.9-5.8 4.3-.2.5-10.4.8-22.7.8-21.8 0-22.5-.1-25-2.3l-2.6-2.2 9-51.7c9.8-55.9 10.8-59.9 18.7-69.5l3.5-4.3h25.3c24.9 0 25.3 0 27.3 2.2zm14-1c1.7.7 7 1 13.6.9 5.9-.2 10.7-.1 10.8.1 0 .1.6 3.9 1.3 8.3l1.2 8 3.8-7.3c3.2-6.4 4-7.3 5.9-6.9 1.2.3 7 1.4 12.9 2.3l10.6 1.8-13.4 26.8c-9.2 18.4-13.4 27.8-13.4 30 .1 1.8 2 16.9 4.4 33.6 2.3 16.6 4 30.5 3.7 30.7-.2.3-6.2.5-13.2.5-14.6 0-12.8 1.6-15-13.3-.7-4.8-1.5-8.7-1.8-8.7-.3 0-2.9 5-5.8 11l-5.1 11h-13.1c-7.2 0-13.1-.4-13.1-.8 0-.5 7-15.4 15.6-33.3l15.5-32.4-4.1-29c-2.2-16-4.3-30.2-4.6-31.8-.6-3.1-.5-3.1 3.3-1.5zm170.6 10c1.5 6.2 2.7 11.6 2.7 12 0 .5-8.4.8-18.7.8h-18.8l-6.4 37.3c-3.6 20.4-6.7 38.4-6.9 39.9-.4 2.3-.1 2.8 1.7 2.8 1.1 0 2.1-.3 2.1-.8 0-.4 1.6-9.7 3.5-20.7s3.5-20.3 3.5-20.7c0-.4 6.4-4.6 14.3-9.2 11.2-6.7 14.2-8.1 14.4-6.8.1.9-3 20.1-7 42.7l-7.2 41-21.8.3c-13.9.1-22.5-.1-23.7-.8-2.9-1.5-8-10.9-8-14.7 0-1.7 3.8-25.3 8.6-52.3 6.7-39 9-49.9 10.7-52.5 2-3.1 2.7-3.4 16.2-6.3 10.6-2.2 16.9-3 26-3.1l12.1-.1 2.7 11.2zm86.7-9.8c0 .8-4.9 29.9-11 64.6-6 34.7-11 63.4-11 63.6 0 .2-6.1.4-13.5.4-11.8 0-13.5-.2-13.5-1.6 0-1.5 7.4-45 8.4-49.7.4-1.6-.2-1.8-5.7-1.5l-6.2.3-4.5 26-4.5 26-12.9.3c-7.1.1-13.2-.1-13.6-.5-.4-.4 1.3-11.6 3.6-24.8 2.4-13.2 4.3-25 4.4-26.2 0-1.8-.6-2.2-4-2.5l-3.9-.3 6-9.6 5.9-9.6 3-16.9 2.9-16.8 6.3-9c3.4-5 6.9-10.1 7.7-11.3 1.6-2.2 1.9-2.2 28.9-2.3 22.8 0 27.2.2 27.2 1.4zm102.3 2.1c3.4 4.3 4.7 7.6 4.7 12.3 0 2-4.3 28.2-9.5 58.2-5.2 30-9.5 54.8-9.5 55.2 0 .5-6.5.8-14.5.8-12.7 0-14.5-.2-14.5-1.6 0-2 12.9-79.2 13.6-81.7.4-1.2 0-1.7-1.5-1.7-2.5 0-1.7-3.8-9.7 44-3.6 21.6-6.8 39.8-7 40.2-.9 1.4-28.4 1-28.4-.4 0-1.1 12.5-75.5 13.6-81.1.4-2.2.2-2.7-1.3-2.7-1.6 0-2.5 4.4-8.6 40.8-3.8 22.4-7.1 41.5-7.3 42.4-.5 1.6-2 1.8-14 1.8-13.3 0-13.4 0-13.4-2.3 0-2 16.1-96.4 17.5-102.4.5-2 .1-2.2-4-2.5l-4.4-.3 7-11.3 7.1-11.2h81.3l2.8 3.5zm44.7-3c0 1.6-22.2 128.1-22.6 128.7-.9 1.3-26.4 1-26.4-.4 0-.6 5-29.5 11-64.3 6.1-34.8 11-63.5 11-63.8 0-.4 6.1-.7 13.5-.7s13.5.2 13.5.5zm40.4 1.2c.2 1 2.2 10.1 4.3 20.3 2.1 10.2 4 17.6 4.2 16.5.2-1.1 1.8-10.1 3.5-20l3.1-18 14.3-.3 14.3-.3-.6 3.3c-.4 1.8-5.4 31-11.3 64.8l-10.7 61.5-11.6.3-11.7.3-1.6-7.3c-.9-4-2.9-13.2-4.5-20.3-1.6-7.2-3.1-12.3-3.4-11.5-.3.8-2 9.5-3.7 19.4-1.7 9.8-3.3 18.3-3.6 18.7-.6 1.1-26.4 1.2-26.4.1 0-.4 4.1-24 9-52.4 5-28.5 9-52.2 9-52.8 0-.5-1.8-1-4-1s-4-.2-4-.4c0-.3 3-5.4 6.6-11.5l6.7-11.1h10.8c9.4 0 10.8.2 11.3 1.7zm-336.2 151c7.2 4.7 25.6 13.8 26.4 13.1.2-.3-2.4-2.3-5.9-4.6-3.4-2.3-8.4-6.1-11.2-8.6l-5-4.5 131.7-.1h131.7l.7 3.6c2.2 11.6-1.9 39.2-7.6 52.1l-2.1 4.8-2.2-3c-4.3-6.1-17.4-18.9-25.7-25.1-9.4-7.1-28.5-17-40-20.8-24.7-8.1-56.6-9.8-84.3-4.4-4.5.8-5.5 1.3-4.6 2.4 1.5 1.8 28.3 14.9 35.1 17.2 3.2 1 5.5 2.2 5.1 2.5-1 1.1-43.5.8-60.5-.3-29-2-57.8-6.3-81.8-12.1-14.5-3.6-43.4-13-48.8-15.9l-3.7-2.1 22.9.7 22.9.6 6.9 4.5z"/>
  <path d="M496 213.7c.8.4 7.3 2.6 14.5 5 10.8 3.6 12.6 4 10.9 2.3-1.9-1.9-21.8-8.1-25.4-7.9-1.3 0-1.3.1 0 .6zm40.3 18c.9 1.1 6.3 4.7 12 8.1 5.6 3.3 11.1 6.7 12.2 7.6 1.9 1.5 1.8 1.5-2.2 1.6-5.7 0-6.1 1.4-.8 2.8 4.5 1.2 8.6 4.7 15.7 13.4 4.6 5.6 12.1 10.7 25.6 17.5l10.4 5.1-5.9 1.7c-3.2.9-6.9 2-8.3 2.5-2.3.8-2.3.8 1 .9 1.9.1 8.5.8 14.5 1.6 6.1.8 13.4 1.8 16.4 2.2l5.4.6-4.7-8.6-4.7-8.6 4-1.2c2.3-.7 4.1-1.4 4.1-1.5 0-.6-24.1-31.4-24.5-31.4-.5 0 3.7 9.5 6.6 15.2 1.1 2.2 1.9 4.1 1.7 4.3-.2.2-3.8-2.3-8.1-5.5-12.9-9.7-37.6-23.4-49.2-27.4-6.2-2.1 27.9 22.3 51.9 37.2l6.9 4.3-2.9 2c-1.6 1.1-4.6 1.9-7 1.9-7.2 0-13.8-4.3-26.9-17.5-6.6-6.7-14-13.6-16.5-15.2-6.1-4.1-20.6-12.2-25-14.1-3.5-1.4-3.5-1.4-1.7.5zM168.5 473.2c-.2.7-3.1 17.3-6.5 36.8-3.3 19.5-6.3 36.8-6.6 38.3l-.6 2.8 5.4-.3 5.3-.3 6.2-35c3.4-19.3 6.4-36.9 6.8-39.3l.6-4.2H174c-3.2 0-5.2.5-5.5 1.2zm268 1c-.3 1.3-1.3 7.1-2.4 13l-1.8 10.8h5.3c3 0 5.4-.1 5.4-.3.1-.1 1.1-5.9 2.4-13l2.2-12.7h-5.3c-4.6 0-5.3.3-5.8 2.2z"/>
</svg>